<?xml version="1.0" encoding="utf-8"?>
<!-- Generator: Adobe Illustrator 26.1.0, SVG Export Plug-In . SVG Version: 6.00 Build 0)  -->
<svg version="1.1" xmlns="http://www.w3.org/2000/svg" xmlns:xlink="http://www.w3.org/1999/xlink" x="0px" y="0px"
	 viewBox="0 0 100 100" style="enable-background:new 0 0 100 100;" xml:space="preserve">
<style type="text/css">
	.st0{display:none;}
	.st1{display:inline;}
	.st2{fill:none;stroke:#000000;stroke-width:0.5;stroke-miterlimit:10;}
	.st3{display:inline;stroke:#000000;stroke-width:0.5;stroke-linecap:round;stroke-linejoin:round;}
	.st4{display:inline;stroke:#000000;stroke-width:0.5;stroke-miterlimit:10;}
	.st5{display:inline;fill:none;stroke:#000000;stroke-width:0.5;stroke-linecap:round;stroke-linejoin:round;}
	.st6{stroke:#000000;stroke-width:0.5;stroke-miterlimit:10;}
	.st7{display:inline;fill:none;stroke:#000000;stroke-width:0.5;stroke-miterlimit:10;}
</style>
<g id="Layer_1" class="st0">
	<g id="XMLID_00000001650928183250815890000010420520025556074417_" class="st1">
		<path class="st2" d="M23.6,60.5c-8.7,5.2-13.9,9.3-13.2,10.7c0.7,1.4,7.3-0.1,17.1-3.8c7.8,10.2,21.8,14,33.7,8.3
			C73.1,70,78.9,56.7,75.9,44.3c9.4-5.5,15.2-9.9,14.5-11.4c-0.7-1.5-7.5,0.2-17.5,4c-7.2-12.5-22.7-17.5-35.7-11.3
			C24.1,31.8,18.3,47.1,23.6,60.5z"/>
	</g>
	<path class="st3" d="M68.5,38.4l-40,19.2C24.8,47,29.6,35.1,40,30.1C50.3,25.1,62.6,28.8,68.5,38.4z"/>
	<path class="st3" d="M71.7,47c1.4,9.4-3.4,19.1-12.4,23.4c-9.1,4.3-19.6,2-26.1-5L71.7,47z"/>
	<circle class="st4" cx="64.7" cy="9.8" r="6.5"/>
	<path class="st5" d="M21.9,36.1c3-5.5,7.8-10.2,13.9-13.1c1.6-0.8,3.2-1.4,4.9-1.9"/>
	<path class="st5" d="M18.4,46.4c0.4-2.7,1.2-5.4,2.3-7.9"/>
	<path class="st5" d="M18.4,46.4"/>
	<path class="st5" d="M18.3,75C11,76.7,6,76.6,5,74.4C3.6,71.5,9.2,65.7,19,58.9c-0.4-1.5-0.7-3-0.8-4.6"/>
	<path class="st5" d="M29.3,75c-0.9-0.7-1.7-1.5-2.5-2.3c-0.4,0.1-0.7,0.2-1.1,0.3"/>
	<path class="st5" d="M29.3,75"/>
	<path class="st5" d="M75.8,67.5c-3,4.9-7.5,9-13.1,11.7c-7,3.4-14.6,3.9-21.5,2"/>
	<path class="st5" d="M75.8,67.5"/>
	<path class="st5" d="M90.2,39.9c-2.6,2.3-6,4.8-9.9,7.4c0.6,4.8,0,9.6-1.5,14.1"/>
	<path class="st5" d="M90.2,39.9"/>
	<path class="st5" d="M95.8,30.1c0.1,0.2,0.3,0.3,0.4,0.5c0.3,0.6,0.3,1.4-0.1,2.4"/>
	<path class="st5" d="M51.8,19.9c8.8,0.7,17,5.1,22.4,12.3c9.2-2.9,16.4-4,19.8-3.1"/>
	<circle class="st4" cx="24.3" cy="91.3" r="5.1"/>
</g>
<g id="Layer_3">
	<path class="st2" d="M74.1,41.4c0,3.5-1.3,3.8-1.1,7.6c0.2,4.9,0.9,7,0,10.9c-0.3,1.3-2.2,3.3-3.3,4.4c-1.4,1.4-2.9,2.1-4.4,2.2
		c-1.9,0.1-3.7,0.6-4.4,1.1c-1.2,0.9,0,3-1.1,5.5c-0.9,2.1-3.2,2.8-4.4,3.3c-1.6,0.6-3.1,0.6-6,0.6c-2.9,0-4.4,0-6-0.6
		c-1.2-0.5-3.4-1.2-4.4-3.3c-1.1-2.5,0.1-4.6-1.1-5.5c-0.7-0.5-2.5-1-4.4-1.1c-1.4-0.1-3-0.8-4.4-2.2c-1.1-1.1-3-3-3.3-4.4
		c-0.9-4-0.2-6,0-10.9c0.2-3.8-1.1-4.1-1.1-7.6c0-2.2-0.4-6.7,2-11.5c1.1-2,4.2-7.1,10-10.4c5.2-2.9,10-2.7,12.5-2.6
		c0,0,0.1,0,0.1,0c2,0,7.4,0,12.5,2.6c6.7,3.4,9.5,9.5,10,10.4C74.5,34.8,74.1,39.3,74.1,41.4z"/>
	<g>
		<path class="st6" d="M30.9,56.7c-0.9-2.7,0.7-5.1,0.9-5.5c0.3-0.4,2-2.6,3.4-2.2c6.6,2.2,8.5,1.2,9.8,5.5c0.2,0.5,0.6,1.9,0,3.3
			c-1.1,2.9-5.4,4-8.7,3.3C35.8,60.9,32,60.1,30.9,56.7z"/>
		<path class="st6" d="M68.1,56.7c0.9-2.7-0.7-5.1-0.9-5.5c-0.3-0.4-2-2.6-3.4-2.2c-6.6,2.2-8.5,1.2-9.8,5.5c-0.2,0.5-0.6,1.9,0,3.3
			c1.1,2.9,5.4,4,8.7,3.3C63.3,60.9,67,60.1,68.1,56.7z"/>
	</g>
	<path class="st6" d="M53.5,65.5c0,0.1-0.4,0.9-1.1,1.1c-1,0.3-1.7-0.9-2.9-1.1h0c-1.1,0.1-1.8,1.4-2.9,1.1c-0.7-0.2-1.1-1-1.1-1.1
		c-0.5-1.1,0.5-2.1,2.2-5.5c1-2,1.2-2.7,1.7-2.8c0,0,0,0,0,0c0,0,0,0,0,0c0.5,0.1,0.7,0.8,1.7,2.8C53,63.4,53.9,64.3,53.5,65.5z"/>
	<path class="st2" d="M29.2,33.9c-0.5,1.2-1,2.9-0.7,5c0.2,1.5,0.7,2.1,0.8,3.2c0.1,1.4-0.4,3.3-3.2,5.6"/>
	<path class="st2" d="M69.8,33.9c0.5,1.2,1,2.9,0.7,5c-0.2,1.5-0.7,2.1-0.8,3.2c-0.1,1.4,0.4,3.3,3.2,5.6"/>
	<path class="st2" d="M45.9,18.9c3.1-0.1,5.7,0.2,7.6,0.5c2.9,0.5,5.6,1,8.6,2.8c1.4,0.8,2.4,1.7,3.1,2.4"/>
	<path class="st2" d="M43.6,80.6c-0.3-0.1-0.7-0.2-1-0.3c-1-0.4-2.6-0.9-3.8-2"/>
	<path class="st2" d="M43.6,80.6"/>
	<path class="st2" d="M62,74.3c-0.1,0.7-0.2,1.5-0.6,2.3c-1.1,2.3-3.7,3.2-5,3.7C54.6,81,52.9,81,49.5,81c-1.1,0-2,0-2.8,0"/>
	<path class="st2" d="M75.2,27.1c0.2,0.3,0.3,0.6,0.4,0.7c2.8,5.4,2.3,10.5,2.3,13c0,4-1.4,4.3-1.3,8.7c0.3,5.6,1.1,7.9,0,12.4
		c-0.4,1.5-2.5,3.7-3.8,4.9c-1.6,1.6-3.4,2.4-5,2.5c-0.3,0-0.6,0.1-0.9,0.1"/>
	<path class="st2" d="M35,16c6-3.3,11.6-3.1,14.4-3c0,0,0.1,0,0.1,0c2.2,0,7.9,0,13.6,2.5"/>
	<path class="st2" d="M28.8,68.5c-0.9-0.4-1.8-1-2.6-1.8c-1.3-1.2-3.4-3.4-3.8-4.9c-1.1-4.5-0.3-6.8,0-12.4c0.2-4.3-1.3-4.7-1.3-8.7
		c0-2.5-0.5-7.6,2.3-13c0.8-1.4,2.5-4.2,5.3-7"/>
	<path class="st2" d="M31.2,69.2c-0.8-0.1-1.6-0.3-2.4-0.6"/>
</g>
<g id="Layer_3_copy_3" class="st0">
	<path class="st7" d="M72.3,39.9c0,3.1-1.1,3.4-1,6.8c0.2,4.4,0.8,6.2,0,9.7c-0.3,1.2-2,2.9-3,3.9c-1.3,1.2-2.7,1.9-4,1.9
		c-1.7,0.1-3.3,0.5-4,1c-1.1,0.8,0,2.6-1,4.9c-0.8,1.8-2.9,2.5-4,2.9c-1.5,0.6-2.8,0.6-5.4,0.6c-2.6,0-4,0-5.4-0.6
		c-1.1-0.4-3.1-1.1-4-2.9c-1-2.2,0.1-4.1-1-4.9c-0.6-0.4-2.2-0.9-4-1c-1.3-0.1-2.7-0.7-4-1.9c-1-1-2.7-2.7-3-3.9
		c-0.8-3.5-0.2-5.4,0-9.7c0.1-3.4-1-3.7-1-6.8c0-1.9-0.4-6,1.8-10.2c1-1.8,3.8-6.4,9-9.3c4.7-2.6,9.1-2.4,11.3-2.3c0,0,0,0,0.1,0
		c1.8,0,6.7,0,11.3,2.3c6.1,3,8.6,8.5,9,9.3C72.7,33.9,72.3,37.9,72.3,39.9z"/>
	<path class="st7" d="M76,35"/>
	<path class="st7" d="M27.9,26.1c1.5-2.3,4.6-6.1,9.6-8.6c5.4-2.7,10.4-2.6,13-2.5c0,0,0.1,0,0.1,0c2.1,0,7.7,0,13,2.5
		c6.9,3.2,9.9,8.9,10.4,9.8c0.8,1.4,1.3,2.8,1.6,4.1"/>
	<g class="st1">
		<path class="st6" d="M33.3,53.5c-0.8-2.4,0.6-4.6,0.9-4.9c0.2-0.4,1.8-2.3,3.1-1.9c5.9,1.9,7.7,1.1,8.9,4.9c0.1,0.4,0.5,1.7,0,2.9
			c-1,2.6-4.9,3.6-7.9,2.9C37.7,57.3,34.3,56.5,33.3,53.5z"/>
		<path class="st6" d="M66.9,53.5c0.8-2.4-0.6-4.6-0.9-4.9c-0.2-0.4-1.8-2.3-3.1-1.9c-5.9,1.9-7.7,1.1-8.9,4.9
			c-0.1,0.4-0.5,1.7,0,2.9c1,2.6,4.9,3.6,7.9,2.9C62.6,57.3,66,56.5,66.9,53.5z"/>
	</g>
	<path class="st4" d="M53.7,61.3c0,0.1-0.3,0.8-1,1c-0.9,0.3-1.6-0.8-2.6-1h0c-1,0.1-1.7,1.2-2.6,1c-0.6-0.2-1-0.9-1-1
		c-0.4-1,0.4-1.9,2-4.9c0.9-1.8,1.1-2.4,1.6-2.5c0,0,0,0,0,0c0,0,0,0,0,0c0.5,0.1,0.7,0.7,1.6,2.5C53.3,59.5,54.1,60.3,53.7,61.3z"
		/>
	<path class="st7" d="M31.8,33.1c-0.5,1.1-0.9,2.6-0.7,4.5c0.2,1.3,0.6,1.8,0.7,2.8c0.1,1.2-0.4,2.9-2.9,5"/>
	<path class="st7" d="M68.4,33.1c0.5,1.1,0.9,2.6,0.7,4.5c-0.2,1.3-0.6,1.8-0.7,2.8c-0.1,1.2,0.4,2.9,2.9,5"/>
	<path class="st7" d="M46.8,19.8c2.8-0.1,5.2,0.2,6.9,0.5c2.6,0.4,5.1,0.9,7.8,2.5c1.3,0.8,2.2,1.6,2.8,2.1"/>
	<path class="st7" d="M72.1,35c2.5,0.1,4.5,0.7,5.8,1.1c0,0,0,0,0.1,0c1.7,0.4,6.1,1.5,9.7,4.6c4.8,4,5.8,9.3,5.9,10.1
		c1,4.2-0.4,7.6-0.9,9.3c-0.8,2.7-1.9,2.7-2.6,5.7c-0.9,3.8-0.8,5.6-2.4,8.4c-0.6,1-2.5,2.1-3.7,2.7c-1.5,0.8-2.9,1-4.1,0.8
		c-1.6-0.3-3.1-0.3-3.8-0.1c-1.2,0.4-0.6,2.3-2.1,4c-1.2,1.4-3.2,1.5-4.3,1.6c-1.5,0.1-2.7-0.2-5.1-0.8c-2.4-0.6-3.6-0.9-4.8-1.7
		c-0.9-0.6-2.6-1.7-2.9-3.4c-0.4-2.1,1.1-3.5,0.3-4.4c-0.4-0.5-1.4-1-2.7-1.5"/>
	<path class="st7" d="M76.6,83.2c-0.2,0.6-0.5,1.3-1,1.9c-1.3,1.6-3.6,1.7-4.8,1.9c-1.6,0.2-3-0.2-5.6-0.8c-1.3-0.3-2.3-0.6-3.2-0.9
		"/>
	<path class="st7" d="M78.9,33.6c0.4,0.1,0.7,0.2,1,0.3c0,0,0,0,0.1,0c1.9,0.5,6.7,1.7,10.7,5.1c5.3,4.5,6.3,10.4,6.5,11.3
		c1,4.7-0.5,8.5-1,10.4c-0.9,3.1-2.1,3-2.9,6.4c-1,4.3-0.9,6.3-2.7,9.5c-0.6,1.1-2.8,2.4-4.1,3.1c-1.6,0.9-3.2,1.1-4.5,0.9
		c-0.8-0.1-1.5-0.2-2.2-0.2"/>
	<g class="st1">
		<path class="st6" d="M66.1,64.2c0-0.9-0.2-1.5-0.5-2c-0.2,0-3,0.4-3,0.4c-1.8,0.4-2.4,1-2.5,1.5c-0.3,0.9,0.4,2.1,0,2.7
			c0,0-0.1,0.2-0.2,0.4c0,0.3-0.1,0.7-0.1,1c2.2,0.4,4.5,0,5.7-1.4C66.1,65.7,66.1,64.6,66.1,64.2z"/>
		<path class="st6" d="M84.5,70.6c1.3-1.9,0.5-4.1,0.4-4.4c-0.1-0.4-1.1-2.4-2.3-2.4c-5.9,0.3-7.3-0.8-9.3,2.2
			c-0.2,0.4-0.9,1.3-0.7,2.5c0.3,2.4,3.6,4.2,6.5,4.3C79.6,72.8,82.9,72.9,84.5,70.6z"/>
	</g>
	<path class="st4" d="M70.6,74.3c-0.1,0.1-0.5,0.6-1.1,0.6c-0.9,0-1.2-1.1-2.1-1.4l0,0c-1-0.1-1.8,0.7-2.6,0.3
		c-0.5-0.3-0.7-1-0.7-1.1c-0.1-1,0.8-1.5,3-3.8c1.3-1.3,1.6-1.8,2-1.8c0,0,0,0,0,0c0,0,0,0,0,0c0.4,0.2,0.4,0.8,0.8,2.5
		C70.6,72.6,71.2,73.5,70.6,74.3z"/>
	<path class="st7" d="M90.9,53.3c0.2,1,0.2,2.5-0.5,4c-0.5,1.1-1,1.4-1.3,2.3c-0.4,1-0.4,2.6,1.4,5"/>
	<path class="st7" d="M74.5,36.8c2.6,0.6,4.7,1.3,6.2,2c2.3,1,4.4,1.9,6.4,3.9c1,0.9,1.6,1.8,2,2.5"/>
	<path class="st7" d="M49.7,71.8c-1.1,1.4-2.3,2.2-3.6,2.5c-1.7,0.4-3.2,1-3.8,1.5c-1,0.9,0.4,2.6-0.2,5c-0.5,1.9-2.5,2.9-3.5,3.5
		c-1.4,0.8-2.7,1-5.3,1.3s-3.9,0.6-5.5,0.2c-1.1-0.2-3.3-0.6-4.3-2.3c-1.3-2-0.5-4.1-1.7-4.7c-0.7-0.3-2.3-0.5-4.1-0.4
		c-1.3,0.1-2.8-0.3-4.2-1.4c-1.1-0.8-3.1-2.3-3.5-3.4c-1.4-3.4-1-5.3-1.5-9.6c-0.4-3.4-1.5-3.5-2-6.6c-0.3-1.9-1.3-5.8,0.3-10.4
		c0.7-1.9,2.8-6.9,7.6-10.5c4.3-3.3,8.6-3.7,10.8-4c0,0,0,0,0.1,0c0.7-0.1,2-0.3,3.6-0.4"/>
	<path class="st7" d="M16.2,31.5c3.7-1.8,7.1-2.2,9.1-2.4"/>
	<path class="st7" d="M3.7,45.5c0.3-0.8,0.9-2.2,1.9-3.9"/>
	<path class="st7" d="M13.9,80.5c-0.8-0.2-1.7-0.6-2.5-1.2c-1.3-0.9-3.6-2.6-4.1-3.8c-1.6-3.8-1.1-5.9-1.6-10.8
		c-0.4-3.8-1.8-3.9-2.3-7.4c-0.2-1.3-0.7-3.3-0.6-5.8"/>
	<path class="st7" d="M30.8,89.1c-1,0.1-1.9,0-2.8-0.1c-1.3-0.3-5.8-0.7-7.1-2.6c-0.4-0.5-0.6-1.1-0.7-1.6"/>
	<path class="st7" d="M50.5,75.5c-2,0.4-3.3,1.4-4,2c-1.1,1-0.2,2.4-1,5c-0.4,1.4-1.8,2.6-3.1,3.5"/>
	<g class="st1">
		<path class="st6" d="M14,70.1c-1.1-2.3,0-4.6,0.1-5c0.2-0.4,1.5-2.6,2.8-2.4c6.2,1.1,7.8,0,9.5,3.5c0.2,0.4,0.7,1.6,0.4,2.9
			c-0.6,2.7-4.3,4.3-7.4,4C18.9,73.2,15.4,73,14,70.1z"/>
		<path class="st6" d="M41.1,69.4c0,0-0.9-0.9-0.9-1.8c0-2,0-3.6,0-3.6c-0.2-0.5-0.6-0.7-0.9-0.9c-0.5-0.3-0.9-0.3-1.9-0.5
			c-0.3-0.1-0.8-0.2-1.3-0.3c-0.2,0-0.3,0-0.5,0c-0.4,0.4-1.1,1.4-1.3,2.9c0,0.1-0.2,1.7,0.4,2.9c1.3,2.2,4.8,2.8,7.6,2
			C42.1,69.8,41.1,69.4,41.1,69.4z"/>
	</g>
	<path class="st4" d="M35.3,74.9c0,0.1-0.2,0.8-0.8,1.1c-0.9,0.4-1.7-0.6-2.7-0.6l0,0c-1,0.3-1.5,1.5-2.4,1.3
		c-0.7-0.1-1.1-0.7-1.1-0.8c-0.6-0.9,0.1-1.9,1.2-5.1c0.6-1.9,0.7-2.5,1.2-2.7c0,0,0,0,0,0c0,0,0,0,0,0c0.5,0,0.8,0.6,1.9,2.3
		C34.6,73.1,35.6,73.8,35.3,74.9z"/>
	<path class="st7" d="M9.9,56.8c0.3,0.5,0.5,0.8,0.7,1.4c0.3,1,0.1,2.5-2.1,4.6"/>
	<path class="st7" d="M8.5,51.1c-0.3,1.4-0.5,3.5,0,5.8c0.1,0.6,0.3,1,0.4,1.4"/>
</g>
<g id="Layer_5" class="st0">
	<path class="st4" d="M39.9,38.1H6.2l7.2,8l19.3-3.6l-0.3,1l-17.1,4.3l8,7.2l9.9-7.2l0.6,0.6l-8.3,8l6.4,2.8l4.7-8.8l1.4,0.6
		l-0.8,6.9l4.4-4.1l-0.8-2.8l1.1-0.3l0.8,1.9l1.7-2.8l0.2-1.2l0.9,1.2l-3.6,5l2.5,2.2l3.9-9.1L46,45.6l-2.8,1.4
		c-0.5,0.2-2.3,0.6-2.8,0.7C37,48,36,46.4,36,46.4s-1.2-1.8-0.5-3.9c0.3-1,1-1.9,1.9-2.5l2.5-1.4V38.1z"/>
	<polyline class="st7" points="41.2,36 2,36 9.2,44.7 	"/>
	<polyline class="st7" points="60,36 99.2,36 92.1,44.7 	"/>
	<polyline class="st7" points="42.9,36.7 42.9,36 41.2,36 	"/>
	<path class="st4" d="M43.5,43.5l-2-2l-2,1l1,3l1-1.6C41.5,43.9,42.8,43.7,43.5,43.5z"/>
	<polygon class="st4" points="42.1,39.6 49.2,39.6 45.6,41 44.5,43.5 42.1,40.6 	"/>
	<polygon class="st4" points="53.3,60.3 54.7,63.6 52.5,65.5 51.5,61.5 50.8,62.3 51.9,66.1 50.1,68.3 48.2,66.4 49.4,62.3 
		48.5,61.5 47.5,65.5 45.5,63.4 46.9,60.1 44.7,57.8 50.5,44.5 55.5,57.6 	"/>
	<polygon class="st4" points="48.5,46.5 45.5,43.5 46.5,41.5 49.5,40.5 49.7,43.8 	"/>
	<polygon class="st4" points="46.1,60.3 44.7,58.7 42.2,63.4 40,62.5 39.5,66.5 40.9,64.5 41.7,64.8 39.8,69.2 41.5,70.5 40.9,68.6 
		43.3,65.6 43.9,66.4 43.5,68.5 45.8,66.1 43.9,64.2 	"/>
	<path class="st4" d="M61,38.1h33.7l-7.2,8l-19.3-3.6l0.3,1l17.1,4.3l-8,7.2l-9.9-7.2l-0.6,0.6l8.3,8L69,59.1l-4.7-8.8l-1.4,0.6
		l0.8,6.9l-4.4-4.1l0.8-2.8L59,50.5l-0.8,1.9l-1.7-2.8l-0.2-1.2l-0.9,1.2l3.6,5l-2.5,2.2l-3.9-9.1l2.2-2.2l2.8,1.4
		c0.5,0.2,2.3,0.6,2.8,0.7c3.4,0.4,4.4-1.2,4.4-1.2s1.2-1.8,0.5-3.9c-0.3-1-1-1.9-1.9-2.5L61,38.7V38.1z"/>
	<path class="st4" d="M57.4,43.5l2-2l2,1l-1,3l-1-1.6C59.3,43.9,58.1,43.7,57.4,43.5z"/>
	<polygon class="st4" points="58.8,39.6 51.7,39.6 55.2,41 56.4,43.5 58.8,40.6 	"/>
	<polygon class="st4" points="52.4,46.5 55.4,43.5 54.4,41.5 51.4,40.5 51.2,43.8 	"/>
	<polygon class="st4" points="54.8,60.3 56.1,58.7 58.6,63.4 60.8,62.5 61.4,66.5 60,64.5 59.2,64.8 61.1,69.2 59.4,70.5 60,68.6 
		57.5,65.6 57,66.4 57.4,68.5 55,66.1 57,64.2 	"/>
	<line class="st7" x1="45" y1="37.1" x2="56" y2="37.1"/>
	<polyline class="st7" points="46.8,68.3 50,71.8 53.3,68.3 	"/>
	<path class="st7" d="M31.8,83.1c-8.6-4.4-15.4-11.8-19-20.9"/>
	<path class="st7" d="M70.4,81.9c-6,3.6-13,5.6-20.4,5.6c-4.9,0-9.5-0.9-13.9-2.5"/>
	<path class="st7" d="M85.8,65.4c-2.1,4.2-4.9,8-8.3,11.1"/>
	<path class="st7" d="M82.8,24.6c2.4,3.4,4.3,7.3,5.5,11.4"/>
	<path class="st7" d="M42.8,8.1c2.3-0.4,4.7-0.6,7.2-0.6c12.1,0,22.9,5.3,30.2,13.8"/>
	<path class="st7" d="M15.6,27.1C20.4,19,28,12.7,37,9.6"/>
	<path class="st7" d="M86.4,50.4C84.9,69.2,69.2,84,50,84c-19.5,0-35.4-15.3-36.4-34.6l6.9,7.1"/>
	<path class="st7" d="M15.3,36C20.2,21.5,33.9,11,50,11s29.8,10.5,34.7,25"/>
</g>
<g id="Layer_7" class="st0">
	<path class="st7" d="M45.5,39.7"/>
	<path class="st7" d="M45.5,39.7H42c0,0-6.6-0.8-8.7,0.5c-2.1,1.3-3.1,6.8-3.1,6.8l3.1,17.5l1.2,8.7V82h31v-8.8l1.2-8.7L69.8,47
		c0,0-1-5.5-3.1-6.8c-2.1-1.3-8.7-0.5-8.7-0.5h-3.8"/>
	<path class="st7" d="M59.6,27.8c0,1.4-0.5,1.5-0.4,3c0.1,2,0.4,2.8,0,4.3c-0.1,0.5-0.9,1.3-1.3,1.7c-0.6,0.6-1.2,0.8-1.7,0.9
		c-0.8,0.1-1.5,0.2-1.7,0.4c-0.5,0.3,0,1.2-0.4,2.2c-0.4,0.8-1.3,1.1-1.7,1.3c-0.6,0.2-1.2,0.2-2.4,0.2c-1.2,0-1.7,0-2.4-0.2
		c-0.5-0.2-1.4-0.5-1.7-1.3c-0.4-1,0-1.8-0.4-2.2c-0.3-0.2-1-0.4-1.7-0.4c-0.6,0-1.2-0.3-1.7-0.9c-0.4-0.4-1.2-1.2-1.3-1.7
		c-0.4-1.6-0.1-2.4,0-4.3c0.1-1.5-0.4-1.6-0.4-3c0-0.9-0.2-2.7,0.8-4.6c0.4-0.8,1.7-2.8,4-4.1c2.1-1.2,4-1.1,5-1c0,0,0,0,0,0
		c0.8,0,2.9,0,5,1c2.7,1.4,3.8,3.8,4,4.1C59.8,25.1,59.6,26.9,59.6,27.8z"/>
	<g class="st1">
		<path class="st6" d="M42.5,33.8c-0.3-1.1,0.3-2,0.4-2.2c0.1-0.2,0.8-1,1.4-0.9c2.6,0.9,3.4,0.5,3.9,2.2c0.1,0.2,0.2,0.7,0,1.3
			c-0.4,1.1-2.2,1.6-3.5,1.3C44.4,35.5,42.9,35.2,42.5,33.8z"/>
		<path class="st6" d="M57.2,33.8c0.3-1.1-0.3-2-0.4-2.2c-0.1-0.2-0.8-1-1.4-0.9c-2.6,0.9-3.4,0.5-3.9,2.2c-0.1,0.2-0.2,0.7,0,1.3
			c0.4,1.1,2.2,1.6,3.5,1.3C55.3,35.5,56.8,35.2,57.2,33.8z"/>
	</g>
	<path class="st4" d="M51.4,37.3c0,0-0.2,0.4-0.4,0.4c-0.4,0.1-0.7-0.4-1.1-0.4h0c-0.5,0.1-0.7,0.6-1.1,0.4
		c-0.3-0.1-0.4-0.4-0.4-0.4c-0.2-0.5,0.2-0.8,0.9-2.2c0.4-0.8,0.5-1.1,0.7-1.1c0,0,0,0,0,0s0,0,0,0c0.2,0,0.3,0.3,0.7,1.1
		C51.2,36.5,51.6,36.9,51.4,37.3z"/>
	<path class="st7" d="M26.6,46.3"/>
	<path class="st7" d="M26.6,46.3h-2.4c0,0-4.5-0.6-5.9,0.3c-1.4,0.9-2.1,4.6-2.1,4.6l2.1,11.9l0.8,5.9v6h13"/>
	<path class="st7" d="M28.5,47.8c-0.2,0-0.4-0.1-0.6-0.1c-0.3-0.1-0.9-0.3-1.2-0.9c-0.3-0.7,0-1.2-0.3-1.5c-0.2-0.1-0.7-0.3-1.2-0.3
		c-0.4,0-0.8-0.2-1.2-0.6c-0.3-0.3-0.8-0.8-0.9-1.2c-0.2-1.1-0.1-1.6,0-2.9c0-1-0.3-1.1-0.3-2.1c0-0.6-0.1-1.8,0.5-3.1
		c0.3-0.5,1.1-1.9,2.7-2.8c1.4-0.8,2.7-0.7,3.4-0.7c0,0,0,0,0,0c0.5,0,2,0,3.4,0.7c1.8,0.9,2.6,2.6,2.7,2.8c0.4,0.8,0.5,1.5,0.5,2.1
		"/>
	<g class="st1">
		<path class="st6" d="M24.5,42.4c-0.2-0.7,0.2-1.4,0.3-1.5c0.1-0.1,0.5-0.7,0.9-0.6c1.8,0.6,2.3,0.3,2.6,1.5c0,0.1,0.1,0.5,0,0.9
			c-0.3,0.8-1.5,1.1-2.4,0.9C25.8,43.5,24.8,43.3,24.5,42.4z"/>
	</g>
	<path class="st7" d="M14,50.3h-1.7c0,0-3.1-0.4-4.1,0.2c-1,0.6-1.5,3.2-1.5,3.2L8.2,62l0.6,4.1v4.2h9.1"/>
	<path class="st7" d="M15.3,51.3c-0.2,0-0.3,0-0.4-0.1c-0.2-0.1-0.6-0.2-0.8-0.6c-0.2-0.5,0-0.9-0.2-1c-0.1-0.1-0.5-0.2-0.8-0.2
		c-0.3,0-0.6-0.1-0.8-0.4c-0.2-0.2-0.6-0.6-0.6-0.8c-0.2-0.7,0-1.1,0-2.1c0-0.7-0.2-0.8-0.2-1.4c0-0.4-0.1-1.3,0.4-2.2
		c0.2-0.4,0.8-1.3,1.9-2c1-0.5,1.9-0.5,2.4-0.5c0,0,0,0,0,0c0.4,0,1.4,0,2.4,0.5c1.3,0.6,1.8,1.8,1.9,2c0.3,0.5,0.4,1.1,0.4,1.5"/>
	<g class="st1">
		<path class="st6" d="M12.5,47.5c-0.2-0.5,0.1-1,0.2-1c0-0.1,0.4-0.5,0.6-0.4c1.2,0.4,1.6,0.2,1.9,1c0,0.1,0.1,0.4,0,0.6
			c-0.2,0.5-1,0.8-1.6,0.6C13.4,48.3,12.7,48.1,12.5,47.5z"/>
	</g>
	<path class="st4" d="M15.9,49c-0.1,0.2-0.1,0.4-0.3,0.4c-0.1,0-0.2-0.2-0.2-0.2c-0.1-0.2,0.1-0.4,0.4-1c0.2-0.4,0.2-0.5,0.3-0.5
		c0,0,0,0,0,0c0,0,0,0,0,0c0.1,0,0,0.8,0,0.8L15.9,49z"/>
	<path class="st7" d="M73.7,46.3"/>
	<path class="st7" d="M73.7,46.3h2.4c0,0,4.5-0.6,5.9,0.3c1.4,0.9,2.1,4.6,2.1,4.6L82,63.1L81.2,69v6h-13"/>
	<path class="st7" d="M71.8,47.8c0.2,0,0.4-0.1,0.6-0.1c0.3-0.1,0.9-0.3,1.2-0.9c0.3-0.7,0-1.2,0.3-1.5c0.2-0.1,0.7-0.3,1.2-0.3
		c0.4,0,0.8-0.2,1.2-0.6c0.3-0.3,0.8-0.8,0.9-1.2c0.2-1.1,0.1-1.6,0-2.9c0-1,0.3-1.1,0.3-2.1c0-0.6,0.1-1.8-0.5-3.1
		c-0.3-0.5-1.1-1.9-2.7-2.8c-1.4-0.8-2.7-0.7-3.4-0.7c0,0,0,0,0,0c-0.5,0-2,0-3.4,0.7c-1.8,0.9-2.6,2.6-2.7,2.8
		c-0.4,0.8-0.5,1.5-0.5,2.1"/>
	<g class="st1">
		<path class="st6" d="M75.8,42.4c0.2-0.7-0.2-1.4-0.3-1.5c-0.1-0.1-0.5-0.7-0.9-0.6c-1.8,0.6-2.3,0.3-2.6,1.5c0,0.1-0.1,0.5,0,0.9
			c0.3,0.8,1.5,1.1,2.4,0.9C74.5,43.5,75.5,43.3,75.8,42.4z"/>
	</g>
	<path class="st7" d="M86.3,50.3H88c0,0,3.1-0.4,4.1,0.2c1,0.6,1.5,3.2,1.5,3.2L92.1,62l-0.6,4.1v4.2h-9.1"/>
	<path class="st7" d="M85,51.3c0.2,0,0.3,0,0.4-0.1c0.2-0.1,0.6-0.2,0.8-0.6c0.2-0.5,0-0.9,0.2-1c0.1-0.1,0.5-0.2,0.8-0.2
		c0.3,0,0.6-0.1,0.8-0.4c0.2-0.2,0.6-0.6,0.6-0.8c0.2-0.7,0-1.1,0-2.1c0-0.7,0.2-0.8,0.2-1.4c0-0.4,0.1-1.3-0.4-2.2
		c-0.2-0.4-0.8-1.3-1.9-2c-1-0.5-1.9-0.5-2.4-0.5c0,0,0,0,0,0c-0.4,0-1.4,0-2.4,0.5c-1.3,0.6-1.8,1.8-1.9,2
		c-0.3,0.5-0.4,1.1-0.4,1.5"/>
	<g class="st1">
		<path class="st6" d="M87.8,47.5c0.2-0.5-0.1-1-0.2-1c0-0.1-0.4-0.5-0.6-0.4c-1.2,0.4-1.6,0.2-1.9,1c0,0.1-0.1,0.4,0,0.6
			c0.2,0.5,1,0.8,1.6,0.6C86.8,48.3,87.6,48.1,87.8,47.5z"/>
	</g>
	<path class="st4" d="M84.4,49c0.1,0.2,0.1,0.4,0.3,0.4c0.1,0,0.2-0.2,0.2-0.2c0.1-0.2-0.1-0.4-0.4-1c-0.2-0.4-0.2-0.5-0.3-0.5
		c0,0,0,0,0,0c0,0,0,0,0,0c-0.1,0,0,0.8,0,0.8L84.4,49z"/>
	<path class="st7" d="M30.6,47"/>
	<path class="st4" d="M44.7,38.5l-1.3,10.8l-1-2.1c0,0-3.1-0.3-4.1,0.2c-1,0.5-1.2,2.9-1.2,2.9l1.1,1.5l-10.4,0.4l1.9-2.9l-0.3-3.3
		c0,0-0.2-1.9,0.7-3.8s2.2-2.8,3.1-3.4s2.8-1.1,4.7-0.9c2.1,0.2,3.9,0.9,3.9,0.9l1.5,0.1L44.7,38.5z"/>
	<path class="st4" d="M55,38.5l1.3,10.8l1-2.1c0,0,3.1-0.3,4.1,0.2c1,0.5,1.2,2.9,1.2,2.9l-1.1,1.5l10.4,0.4L70,49.3l0.3-3.3
		c0,0,0.2-1.9-0.7-3.8c-0.9-1.9-2.2-2.8-3.1-3.4c-0.9-0.5-2.8-1.1-4.7-0.9c-2.1,0.2-3.9,0.9-3.9,0.9l-1.5,0.1L55,38.5z"/>
	<path class="st7" d="M39.8,21.7c0.7-1.1,2.1-2.7,4.1-3.8c2.4-1.3,4.7-1.2,5.8-1.2c0,0,0,0,0,0c0.9,0,3.4,0,5.8,1.2
		c3.1,1.5,4.4,4.2,4.7,4.6c1.1,2.1,0.9,4.1,0.9,5c0,1.6-0.6,1.7-0.5,3.4c0.1,2.2,0.4,3.1,0,4.8c-0.1,0.3-0.4,0.7-0.7,1.1"/>
	<path class="st7" d="M38.4,27.5c0-0.8-0.1-2.2,0.4-3.9"/>
	<path class="st7" d="M40.1,37.3c-0.5-0.5-1.1-1.1-1.2-1.6c-0.4-1.6-0.1-2.5,0-4.3"/>
	<path class="st7" d="M36.8,33.8c0.1,0.1,0.1,0.2,0.2,0.3c0.5,0.9,0.6,1.7,0.7,2.4"/>
	<path class="st7" d="M30.6,30.2c0.8,0.1,2,0.2,3.1,0.8c0.9,0.4,1.6,1,2.1,1.5"/>
	<path class="st7" d="M22.6,33.5c0.5-0.7,1.5-1.8,2.9-2.5c0.8-0.4,1.5-0.6,2.2-0.7"/>
	<path class="st7" d="M10,41.9c0.5-0.7,1.3-1.8,2.6-2.5c0.7-0.4,1.4-0.6,1.9-0.7"/>
	<path class="st7" d="M21.8,40.9c0-0.3,0.1-0.6,0.1-1c0.1-1.1-0.4-1.2-0.4-2.3"/>
	<path class="st7" d="M65.3,31.9c-1.2,1-1.7,2-1.9,2.2c-0.5,0.9-0.6,1.7-0.7,2.4"/>
	<path class="st7" d="M70.1,30.2c-0.4,0-0.8,0.1-1.3,0.1"/>
	<path class="st7" d="M78.6,40.9c0-0.3-0.1-0.6-0.1-1c-0.1-1.1,0.4-1.2,0.4-2.3c0-0.7,0.1-2-0.7-3.4c-0.4-0.6-1.4-2.1-3.3-3.1
		c-0.4-0.2-0.8-0.4-1.2-0.5"/>
	<polyline class="st7" points="8.1,79.2 30.3,79.2 32.2,83.2 	"/>
	<line class="st7" x1="33.1" y1="83.9" x2="66.7" y2="83.9"/>
	<line class="st7" x1="44" y1="85.8" x2="55.7" y2="85.8"/>
	<polyline class="st7" points="91.7,79.2 69.4,79.2 67.6,83.2 	"/>
</g>
<g id="Layer_6" class="st0">
	<path class="st7" d="M14.4,59.3c0,0,11-3.9,34.1,0.4c23.4,5.5,32.5,13.6,32.5,13.6l8.4-36.2c0,0-13,18.7-17.6,17.2
		c-4.6-1.4,3.9-34.8,3.9-34.8S63.4,51.8,58.4,51.1S60.5,13,60.5,13S48,49,41.6,47.4s-1.5-31.5-1.5-31.5S31.5,47.8,25.6,47
		c-5.9-0.8-4.7-25.2-4.7-25.2L14.4,59.3z"/>
	<path class="st4" d="M78.5,76.3c-0.8,3.3-15.5,2.1-32.2-1.4c-16.8-3.5-31.6-9-30.8-12.3s16.4-4.1,33.1-0.6S79.3,72.9,78.5,76.3z"/>
	<path class="st7" d="M9.8,61.1"/>
	<path class="st7" d="M82.4,77.7c-2.3,5.2-18.1,4.6-37.2,0.6c-12.8-2.7-24.5-6.8-30.7-11"/>
	<path class="st7" d="M26.1,44.3"/>
	<path class="st7" d="M30.8,59.2"/>
	<path class="st7" d="M41,41.8"/>
	<path class="st7" d="M43.6,43.4"/>
	<path class="st7" d="M46.8,59.6"/>
	<path class="st7" d="M58.9,42.3"/>
	<path class="st7" d="M62.7,44.1"/>
	<path class="st7" d="M63.6,63.3"/>
	<path class="st7" d="M74,47.8"/>
	<path class="st7" d="M24.4,43"/>
	<path class="st4" d="M37.4,49.7c-2,1-3.6,2.8-4.9,5.4c-0.7-3-1.7-5.2-3.2-6.4c2.4-1.3,4-3.1,4.9-5.4C34.7,45.6,35.7,47.8,37.4,49.7
		z"/>
	<path class="st4" d="M68.8,56.3c-2.1,0.7-4,2.3-5.8,4.7c-0.2-3-0.8-5.4-2.1-6.7c2.5-1,4.5-2.5,5.8-4.7
		C66.8,51.9,67.4,54.2,68.8,56.3z"/>
	<path class="st7" d="M28.8,39.8c-0.8,1.1-1.5,1.7-2,1.6c-3.8-0.5-4-21.6-4-27.1"/>
	<path class="st7" d="M45.4,43c-1,0.8-1.9,1.1-2.7,0.7c-2.6-1.1-1.7-24.3,0.1-33.3"/>
	<path class="st7" d="M45.4,43"/>
	<path class="st7" d="M59.9,17.1"/>
	<path class="st7" d="M69.5,30.2c-4,8.1-7,16.9-9.9,16.2c-2.4-0.6,2-25.1,3.4-37.9"/>
	<path class="st7" d="M84.7,41.1c-4.6,5-9.7,10.1-11.1,9.9c-2.2-0.5,1.3-21.5,3.6-31.4"/>
	<line class="st7" x1="82.8" y1="77" x2="92.8" y2="30.4"/>
	<line class="st7" x1="16.8" y1="28.4" x2="11.2" y2="60.5"/>
</g>
</svg>
